<svg width="26" height="25" viewBox="0 0 26 25" fill="none" xmlns="http://www.w3.org/2000/svg">
<path d="M4.94369 18.1905H21.7888C22.3678 18.1905 22.8416 17.7375 22.8416 17.1837C22.8416 16.63 22.3678 16.1769 21.7888 16.1769H4.94369C4.36464 16.1769 3.89087 16.63 3.89087 17.1837C3.89087 17.7375 4.36464 18.1905 4.94369 18.1905ZM4.94369 13.1565H21.7888C22.3678 13.1565 22.8416 12.7034 22.8416 12.1497C22.8416 11.596 22.3678 11.1429 21.7888 11.1429H4.94369C4.36464 11.1429 3.89087 11.596 3.89087 12.1497C3.89087 12.7034 4.36464 13.1565 4.94369 13.1565ZM3.89087 7.11569C3.89087 7.66943 4.36464 8.12249 4.94369 8.12249H21.7888C22.3678 8.12249 22.8416 7.66943 22.8416 7.11569C22.8416 6.56195 22.3678 6.10889 21.7888 6.10889H4.94369C4.36464 6.10889 3.89087 6.56195 3.89087 7.11569Z" fill="#4047E2"/>
</svg>
